<svg xmlns="http://www.w3.org/2000/svg" width="1400" height="900" viewBox="0 0 1400 900">
<defs>
<style>
.title { font-family: Arial, Helvetica, sans-serif; font-size: 34px; font-weight: 700; fill:#111827; }
.subtitle { font-family: Arial, Helvetica, sans-serif; font-size: 18px; fill:#475569; }
.label { font-family: Arial, Helvetica, sans-serif; font-size: 18px; font-weight:600; fill:#111827; }
.small { font-family: Arial, Helvetica, sans-serif; font-size: 14px; fill:#334155; }
.box { fill:#f8fafc; stroke:#334155; stroke-width:2; rx:16; }
.core { fill:#eef2ff; stroke:#3730a3; stroke-width:3; rx:22; }
.good { fill:#ecfdf5; stroke:#047857; stroke-width:2; rx:16; }
.bad { fill:#fff1f2; stroke:#be123c; stroke-width:2; rx:16; }
.neutral { fill:#fefce8; stroke:#a16207; stroke-width:2; rx:16; }
.arrow { stroke:#334155; stroke-width:2.5; fill:none; marker-end:url(#arrow); }
.line { stroke:#64748b; stroke-width:2; fill:none; }
</style>
<marker id="arrow" markerWidth="12" markerHeight="12" refX="10" refY="6" orient="auto"><path d="M2,2 L10,6 L2,10 Z" fill="#334155"/></marker>
</defs>
<rect width="100%" height="100%" fill="white"/>
<text x="700" y="55" text-anchor="middle" class="title">Fig-008 — Future Research Roadmap</text>
<rect x="70" y="170" width="230" height="80" class="core"/>
<text x="185.0" y="216.0" text-anchor="middle" class="label">Theory Layer</text>
<rect x="360" y="175" width="185" height="70" class="box"/>
<text x="452.5" y="216.0" text-anchor="middle" class="label">FT Principles</text>
<path d="M300 210 L360 210" class="arrow"/>
<rect x="590" y="175" width="185" height="70" class="box"/>
<text x="682.5" y="216.0" text-anchor="middle" class="label">Neutrality Principle</text>
<path d="M545 210 L590 210" class="arrow"/>
<rect x="820" y="175" width="185" height="70" class="box"/>
<text x="912.5" y="216.0" text-anchor="middle" class="label">Taxonomy</text>
<path d="M775 210 L820 210" class="arrow"/>
<rect x="1050" y="175" width="185" height="70" class="box"/>
<text x="1142.5" y="216.0" text-anchor="middle" class="label">Civilization View</text>
<path d="M1005 210 L1050 210" class="arrow"/>
<rect x="70" y="380" width="230" height="80" class="core"/>
<text x="185.0" y="426.0" text-anchor="middle" class="label">Metric &amp; Algorithm Layer</text>
<rect x="360" y="385" width="185" height="70" class="box"/>
<text x="452.5" y="426.0" text-anchor="middle" class="label">Representation</text>
<path d="M300 420 L360 420" class="arrow"/>
<rect x="590" y="385" width="185" height="70" class="box"/>
<text x="682.5" y="426.0" text-anchor="middle" class="label">Tunnel Distance</text>
<path d="M545 420 L590 420" class="arrow"/>
<rect x="820" y="385" width="185" height="70" class="box"/>
<text x="912.5" y="426.0" text-anchor="middle" class="label">Simulation</text>
<path d="M775 420 L820 420" class="arrow"/>
<rect x="1050" y="385" width="185" height="70" class="box"/>
<text x="1142.5" y="426.0" text-anchor="middle" class="label">Generation</text>
<path d="M1005 420 L1050 420" class="arrow"/>
<rect x="70" y="590" width="230" height="80" class="core"/>
<text x="185.0" y="636.0" text-anchor="middle" class="label">Governance Layer</text>
<rect x="360" y="595" width="185" height="70" class="box"/>
<text x="452.5" y="636.0" text-anchor="middle" class="label">Detection</text>
<path d="M300 630 L360 630" class="arrow"/>
<rect x="590" y="595" width="185" height="70" class="box"/>
<text x="682.5" y="636.0" text-anchor="middle" class="label">Optimization</text>
<path d="M545 630 L590 630" class="arrow"/>
<rect x="820" y="595" width="185" height="70" class="box"/>
<text x="912.5" y="636.0" text-anchor="middle" class="label">Counter-Tunnel</text>
<path d="M775 630 L820 630" class="arrow"/>
<rect x="1050" y="595" width="185" height="70" class="box"/>
<text x="1142.5" y="636.0" text-anchor="middle" class="label">Stewardship</text>
<path d="M1005 630 L1050 630" class="arrow"/>
<text x="700" y="830" text-anchor="middle" class="subtitle">FT-AI v1.0 establishes the full map; future Delta studies solve each module.</text>
</svg>