<svg xmlns="http://www.w3.org/2000/svg" width="1400" height="900" viewBox="0 0 1400 900">
<defs>
<style>
.title { font-family: Arial, Helvetica, sans-serif; font-size: 34px; font-weight: 700; fill:#111827; }
.subtitle { font-family: Arial, Helvetica, sans-serif; font-size: 18px; fill:#475569; }
.label { font-family: Arial, Helvetica, sans-serif; font-size: 18px; font-weight:600; fill:#111827; }
.small { font-family: Arial, Helvetica, sans-serif; font-size: 14px; fill:#334155; }
.box { fill:#f8fafc; stroke:#334155; stroke-width:2; rx:16; }
.core { fill:#eef2ff; stroke:#3730a3; stroke-width:3; rx:22; }
.good { fill:#ecfdf5; stroke:#047857; stroke-width:2; rx:16; }
.bad { fill:#fff1f2; stroke:#be123c; stroke-width:2; rx:16; }
.neutral { fill:#fefce8; stroke:#a16207; stroke-width:2; rx:16; }
.arrow { stroke:#334155; stroke-width:2.5; fill:none; marker-end:url(#arrow); }
.line { stroke:#64748b; stroke-width:2; fill:none; }
</style>
<marker id="arrow" markerWidth="12" markerHeight="12" refX="10" refY="6" orient="auto"><path d="M2,2 L10,6 L2,10 Z" fill="#334155"/></marker>
</defs>
<rect width="100%" height="100%" fill="white"/>
<text x="700" y="55" text-anchor="middle" class="title">Fig-001 — Universal Emergence of Function Tunnels</text>
<rect x="120" y="170" width="220" height="82" class="box"/>
<text x="230.0" y="203.0" text-anchor="middle" class="label">River</text>
<text x="230.0" y="233.0" text-anchor="middle" class="small">flow reinforcement</text>
<path d="M230 252 C230 430, 700 430, 700 430" class="arrow"/>
<rect x="430" y="150" width="220" height="82" class="box"/>
<text x="540.0" y="183.0" text-anchor="middle" class="label">Lightning</text>
<text x="540.0" y="213.0" text-anchor="middle" class="small">low-resistance channel</text>
<path d="M540 232 C540 430, 700 430, 700 430" class="arrow"/>
<rect x="750" y="150" width="220" height="82" class="box"/>
<text x="860.0" y="183.0" text-anchor="middle" class="label">Frost</text>
<text x="860.0" y="213.0" text-anchor="middle" class="small">crystal growth</text>
<path d="M860 232 C860 430, 700 430, 700 430" class="arrow"/>
<rect x="1060" y="170" width="220" height="82" class="box"/>
<text x="1170.0" y="203.0" text-anchor="middle" class="label">Ant Colony</text>
<text x="1170.0" y="233.0" text-anchor="middle" class="small">pheromone trail</text>
<path d="M1170 252 C1170 430, 700 430, 700 430" class="arrow"/>
<rect x="120" y="560" width="220" height="82" class="box"/>
<text x="230.0" y="593.0" text-anchor="middle" class="label">Neural Learning</text>
<text x="230.0" y="623.0" text-anchor="middle" class="small">reinforced pathway</text>
<path d="M230 560 C230 470, 700 470, 700 470" class="arrow"/>
<rect x="430" y="610" width="220" height="82" class="box"/>
<text x="540.0" y="643.0" text-anchor="middle" class="label">Language</text>
<text x="540.0" y="673.0" text-anchor="middle" class="small">semantic convention</text>
<path d="M540 610 C540 470, 700 470, 700 470" class="arrow"/>
<rect x="750" y="610" width="220" height="82" class="box"/>
<text x="860.0" y="643.0" text-anchor="middle" class="label">Market</text>
<text x="860.0" y="673.0" text-anchor="middle" class="small">resource channel</text>
<path d="M860 610 C860 470, 700 470, 700 470" class="arrow"/>
<rect x="1060" y="560" width="220" height="82" class="box"/>
<text x="1170.0" y="593.0" text-anchor="middle" class="label">Politics</text>
<text x="1170.0" y="623.0" text-anchor="middle" class="small">mobilization path</text>
<path d="M1170 560 C1170 470, 700 470, 700 470" class="arrow"/>
<rect x="540" y="365" width="320" height="145" class="core"/>
<text x="700.0" y="429.5" text-anchor="middle" class="label">Function Tunnel</text>
<text x="700.0" y="459.5" text-anchor="middle" class="small">reinforced feasible pathway</text>
<text x="700" y="835" text-anchor="middle" class="subtitle">Different domains, same structural dynamics: asymmetry + feedback + flow + history.</text>
</svg>