<svg xmlns="http://www.w3.org/2000/svg" width="1400" height="900" viewBox="0 0 1400 900">
<defs>
<style>
.title { font-family: Arial, Helvetica, sans-serif; font-size: 34px; font-weight: 700; fill:#111827; }
.subtitle { font-family: Arial, Helvetica, sans-serif; font-size: 18px; fill:#475569; }
.label { font-family: Arial, Helvetica, sans-serif; font-size: 18px; font-weight:600; fill:#111827; }
.small { font-family: Arial, Helvetica, sans-serif; font-size: 14px; fill:#334155; }
.box { fill:#f8fafc; stroke:#334155; stroke-width:2; rx:16; }
.core { fill:#eef2ff; stroke:#3730a3; stroke-width:3; rx:22; }
.good { fill:#ecfdf5; stroke:#047857; stroke-width:2; rx:16; }
.bad { fill:#fff1f2; stroke:#be123c; stroke-width:2; rx:16; }
.neutral { fill:#fefce8; stroke:#a16207; stroke-width:2; rx:16; }
.arrow { stroke:#334155; stroke-width:2.5; fill:none; marker-end:url(#arrow); }
.line { stroke:#64748b; stroke-width:2; fill:none; }
</style>
<marker id="arrow" markerWidth="12" markerHeight="12" refX="10" refY="6" orient="auto"><path d="M2,2 L10,6 L2,10 Z" fill="#334155"/></marker>
</defs>
<rect width="100%" height="100%" fill="white"/>
<text x="700" y="55" text-anchor="middle" class="title">Fig-005 — Metric Space for Function Tunnels</text>
<rect x="100" y="150" width="230" height="72" class="box"/>
<text x="215.0" y="178.0" text-anchor="middle" class="label">Curve</text>
<text x="215.0" y="208.0" text-anchor="middle" class="small">time series</text>
<path d="M330 186 L510 430" class="arrow"/>
<rect x="100" y="260" width="230" height="72" class="box"/>
<text x="215.0" y="288.0" text-anchor="middle" class="label">Tree</text>
<text x="215.0" y="318.0" text-anchor="middle" class="small">weighted branches</text>
<path d="M330 296 L510 430" class="arrow"/>
<rect x="100" y="370" width="230" height="72" class="box"/>
<text x="215.0" y="398.0" text-anchor="middle" class="label">Graph</text>
<text x="215.0" y="428.0" text-anchor="middle" class="small">relations</text>
<path d="M330 406 L510 430" class="arrow"/>
<rect x="100" y="480" width="230" height="72" class="box"/>
<text x="215.0" y="508.0" text-anchor="middle" class="label">Calling Graph</text>
<text x="215.0" y="538.0" text-anchor="middle" class="small">actions / tasks</text>
<path d="M330 516 L510 430" class="arrow"/>
<rect x="100" y="590" width="230" height="72" class="box"/>
<text x="215.0" y="618.0" text-anchor="middle" class="label">Tunnel Graph</text>
<text x="215.0" y="648.0" text-anchor="middle" class="small">pathways</text>
<path d="M330 626 L510 430" class="arrow"/>
<rect x="510" y="340" width="380" height="170" class="core"/>
<text x="700.0" y="417.0" text-anchor="middle" class="label">Function Tunnel Space</text>
<text x="700.0" y="443.0" text-anchor="middle" class="small"><tspan x="700.0" dy="0">heterogeneous representations</tspan><tspan x="700.0" dy="18">common metric operations</tspan></text>
<path d="M890 425 L1040 216" class="arrow"/>
<rect x="1040" y="180" width="250" height="72" class="good"/>
<text x="1165.0" y="208.0" text-anchor="middle" class="label">Tunnel Distance</text>
<text x="1165.0" y="238.0" text-anchor="middle" class="small">similarity / divergence</text>
<path d="M890 425 L1040 351" class="arrow"/>
<rect x="1040" y="315" width="250" height="72" class="good"/>
<text x="1165.0" y="343.0" text-anchor="middle" class="label">Containment</text>
<text x="1165.0" y="373.0" text-anchor="middle" class="small">small-in-large HAS style</text>
<path d="M890 425 L1040 486" class="arrow"/>
<rect x="1040" y="450" width="250" height="72" class="good"/>
<text x="1165.0" y="478.0" text-anchor="middle" class="label">Clustering</text>
<text x="1165.0" y="508.0" text-anchor="middle" class="small">family discovery</text>
<path d="M890 425 L1040 621" class="arrow"/>
<rect x="1040" y="585" width="250" height="72" class="good"/>
<text x="1165.0" y="613.0" text-anchor="middle" class="label">Search &amp; Simulation</text>
<text x="1165.0" y="643.0" text-anchor="middle" class="small">future pathway analysis</text>
<text x="700" y="835" text-anchor="middle" class="subtitle">Metric spaces turn Function Tunnels from concepts into computational objects.</text>
</svg>